<svg width="54" height="94" viewBox="0 0 54 94" fill="none" xmlns="http://www.w3.org/2000/svg">
<path fill-rule="evenodd" clip-rule="evenodd" d="M20.0143 1.83239C20.2559 0.76093 21.207 0 22.3044 0H51.6522C52.3291 0 52.9729 0.292316 53.4187 0.802008C53.8646 1.31168 54.0688 1.98911 53.9794 2.66058C52.7282 12.0533 47.169 21.8381 42.1355 29.0991C39.5912 32.7693 37.1243 35.8742 35.293 38.0625C34.5704 38.9261 33.9451 39.6487 33.4519 40.2085L35.281 43.1378C37.553 46.7765 38.6657 51.0211 38.471 55.3077L37.6049 74.377L41.2112 78.5882C43.5308 81.2968 44.0863 85.0998 42.6389 88.3602C40.5 93.1768 34.777 95.2319 30.0668 92.8746L29.9235 92.8029C28.5606 92.1209 27.0136 91.8996 25.5146 92.1724L16.0974 93.8863C15.6816 93.9619 15.2599 94 14.8376 94H7.04348C3.15337 94 0 90.8435 0 86.95V84.6C0 83.3021 1.05112 82.25 2.34783 82.25H8.95532L21.6911 77.347L12.6433 51.1846C12.0448 49.4539 11.7391 47.6352 11.7391 45.8036V40.3471C11.7391 39.1282 11.8746 37.9128 12.1427 36.7239L20.0143 1.83239ZM28.813 38.3384L28.821 38.3299L28.8565 38.2918C28.8886 38.2571 28.9382 38.2035 29.0039 38.132C29.1351 37.9889 29.3307 37.7737 29.5824 37.4917C30.0858 36.9277 30.8122 36.0974 31.6933 35.0446C33.4573 32.9367 35.8328 29.9463 38.2776 26.4196C42.6943 20.0486 47.1599 12.1755 48.8449 4.7H24.1812L16.7231 37.7591C16.5315 38.6084 16.4348 39.4765 16.4348 40.3471V45.8036C16.4348 47.1119 16.6531 48.4109 17.0807 49.647L26.8709 77.9563C27.2848 79.1534 26.6763 80.4635 25.4951 80.9183L10.2342 86.7933C9.96512 86.8969 9.67939 86.95 9.39131 86.95H4.69566C4.69566 88.2479 5.74678 89.3 7.04348 89.3H14.8376C14.9784 89.3 15.1188 89.2873 15.2574 89.2622L24.6745 87.5483C27.1733 87.0936 29.7519 87.4623 32.0234 88.5992L32.1669 88.6709C34.4826 89.8299 37.2964 88.8194 38.3478 86.4513C39.0596 84.8484 38.7864 82.9787 37.646 81.6468L33.4347 76.7294C33.0461 76.2754 32.8449 75.6904 32.8719 75.0933L33.7803 55.0941C33.9315 51.7602 33.0663 48.4589 31.2991 45.6288L28.5308 41.1955C27.9654 40.2903 28.0824 39.1157 28.813 38.3384Z" fill="#F23929"/>
</svg>
