<svg width="23" height="23" viewBox="0 0 23 23" fill="none" xmlns="http://www.w3.org/2000/svg">
    <path fill-rule="evenodd" clip-rule="evenodd" d="M23 9.22107C23 14.3137 18.8716 18.4421 13.7789 18.4421C11.4538 18.4421 9.32973 17.5816 7.70774 16.1617L6.58381 17.2855L6.58651 19.0216L2.60812 23L0 20.3919L4.01044 16.3815L5.67473 16.4559L6.83831 15.2922C5.41838 13.6702 4.55781 11.5462 4.55781 9.22107C4.55781 4.1284 8.68622 0 13.7789 0C18.8716 0 23 4.1284 23 9.22107ZM21.7705 9.22107C21.7705 13.6347 18.1926 17.2127 13.7789 17.2127C9.36526 17.2127 5.78729 13.6347 5.78729 9.22107C5.78729 4.80744 9.36526 1.22948 13.7789 1.22948C18.1926 1.22948 21.7705 4.80744 21.7705 9.22107ZM1.73875 20.3919L2.60812 21.2612L5.35623 18.5131L5.35494 17.6723L4.4967 17.6339L1.73875 20.3919Z" fill="white"/>
    </svg>
    