<svg width="26" height="26" viewBox="0 0 26 26" fill="none" xmlns="http://www.w3.org/2000/svg">
<path fill-rule="evenodd" clip-rule="evenodd" d="M13 19.5C16.5898 19.5 19.5 16.5898 19.5 13C19.5 9.41015 16.5898 6.5 13 6.5C9.41015 6.5 6.5 9.41015 6.5 13C6.5 16.5898 9.41015 19.5 13 19.5ZM13 17.3333C15.3932 17.3333 17.3333 15.3932 17.3333 13C17.3333 10.6068 15.3932 8.66667 13 8.66667C10.6068 8.66667 8.66667 10.6068 8.66667 13C8.66667 15.3932 10.6068 17.3333 13 17.3333Z" fill="#F1F4F5"/>
<path d="M19.5003 5.41666C18.902 5.41666 18.417 5.90169 18.417 6.49999C18.417 7.09829 18.902 7.58332 19.5003 7.58332C20.0987 7.58332 20.5837 7.09829 20.5837 6.49999C20.5837 5.90169 20.0987 5.41666 19.5003 5.41666Z" fill="#F1F4F5"/>
<path fill-rule="evenodd" clip-rule="evenodd" d="M1.79146 4.63241C1.08301 6.02283 1.08301 7.84301 1.08301 11.4833V14.5167C1.08301 18.157 1.08301 19.9772 1.79146 21.3676C2.41464 22.5907 3.40901 23.585 4.63207 24.2082C6.0225 24.9167 7.84267 24.9167 11.483 24.9167H14.5163C18.1567 24.9167 19.9769 24.9167 21.3672 24.2082C22.5903 23.585 23.5847 22.5907 24.2078 21.3676C24.9163 19.9772 24.9163 18.157 24.9163 14.5167V11.4833C24.9163 7.84301 24.9163 6.02283 24.2078 4.63241C23.5847 3.40935 22.5903 2.41498 21.3672 1.7918C19.9769 1.08334 18.1567 1.08334 14.5163 1.08334H11.483C7.84267 1.08334 6.0225 1.08334 4.63207 1.7918C3.40901 2.41498 2.41464 3.40935 1.79146 4.63241ZM14.5163 3.25001H11.483C9.62708 3.25001 8.36545 3.2517 7.39026 3.33137C6.44035 3.40898 5.95458 3.54965 5.61572 3.72231C4.80035 4.13777 4.13743 4.80068 3.72198 5.61605C3.54931 5.95492 3.40864 6.44069 3.33103 7.3906C3.25136 8.36578 3.24967 9.62742 3.24967 11.4833V14.5167C3.24967 16.3726 3.25136 17.6342 3.33103 18.6094C3.40864 19.5594 3.54931 20.0451 3.72198 20.384C4.13743 21.1993 4.80035 21.8622 5.61572 22.2777C5.95458 22.4504 6.44035 22.5911 7.39026 22.6686C8.36545 22.7483 9.62708 22.75 11.483 22.75H14.5163C16.3723 22.75 17.6338 22.7483 18.6091 22.6686C19.559 22.5911 20.0448 22.4504 20.3837 22.2777C21.199 21.8622 21.8619 21.1993 22.2773 20.384C22.45 20.0451 22.5907 19.5594 22.6683 18.6094C22.7479 17.6342 22.7497 16.3726 22.7497 14.5167V11.4833C22.7497 9.62742 22.7479 8.36578 22.6683 7.3906C22.5907 6.44069 22.45 5.95492 22.2773 5.61605C21.8619 4.80068 21.199 4.13777 20.3837 3.72231C20.0448 3.54965 19.559 3.40898 18.6091 3.33137C17.6338 3.2517 16.3723 3.25001 14.5163 3.25001Z" fill="#F1F4F5"/>
</svg>
