<svg width="23" height="23" viewBox="0 0 23 23" fill="none" xmlns="http://www.w3.org/2000/svg">
    <path d="M0 3.19444C0 14.1327 8.86725 23 19.8056 23C20.299 23 20.7883 22.982 21.2728 22.9465C21.8288 22.9057 22.1067 22.8854 22.3598 22.7397C22.5694 22.6191 22.7681 22.4052 22.8731 22.1873C23 21.9244 23 21.6176 23 21.0041V17.4042C23 16.8883 23 16.6303 22.915 16.4092C22.8402 16.2139 22.7182 16.0399 22.5603 15.9027C22.3816 15.7473 22.139 15.6592 21.6542 15.4828L17.5567 13.9928C16.9925 13.7877 16.7104 13.6851 16.4428 13.7025C16.2068 13.7178 15.9798 13.7985 15.7868 13.9352C15.5681 14.0902 15.4137 14.3475 15.1049 14.8623L14.0556 16.6111C10.6696 15.0777 7.92465 12.3292 6.38889 8.94444L8.13769 7.89516C8.65241 7.58633 8.90977 7.43191 9.06481 7.21313C9.20153 7.02021 9.28216 6.79314 9.29749 6.55717C9.31487 6.28957 9.21227 6.00751 9.00718 5.4434L7.51715 1.34577C7.34083 0.860915 7.25268 0.618483 7.09732 0.439683C6.96007 0.281737 6.78614 0.159914 6.5908 0.0849085C6.36967 1.52323e-07 6.11171 0 5.5958 0H1.9959C1.3824 0 1.07565 9.52019e-08 0.812641 0.12682C0.594805 0.231866 0.380957 0.430624 0.260283 0.640205C0.114591 0.893256 0.094236 1.17124 0.053526 1.72721C0.0180549 2.21165 0 2.70094 0 3.19444Z" fill="#F1F4F5"/>
    </svg>
    