<svg width="26" height="26" viewBox="0 0 26 26" fill="none" xmlns="http://www.w3.org/2000/svg">
    <path d="M25.1923 11.0635C25.3392 11.9095 25.4125 12.7666 25.4113 13.6253C25.4113 17.46 24.0406 20.7024 21.6553 22.8971H21.6584C19.5725 24.8239 16.7051 25.9394 13.3051 25.9394C9.96236 25.9394 6.75649 24.6114 4.39279 22.2477C2.02909 19.884 0.701172 16.6782 0.701172 13.3354C0.701172 9.99261 2.02909 6.78674 4.39279 4.42304C6.75649 2.05934 9.96236 0.731423 13.3051 0.731423C16.434 0.694779 19.4556 1.87024 21.7372 4.01161L18.1388 7.61004C16.838 6.37008 15.102 5.69107 13.3051 5.71944C10.0171 5.71944 7.22372 7.93774 6.22801 10.9249C5.70007 12.4901 5.70007 14.1854 6.22801 15.7506H6.23274C7.23318 18.733 10.0218 20.9513 13.3099 20.9513C15.0083 20.9513 16.4672 20.5165 17.5984 19.7477H17.5936C18.2505 19.3125 18.8123 18.7488 19.2453 18.0905C19.6783 17.4323 19.9734 16.6931 20.1129 15.9176H13.3051V11.0651L25.1923 11.0635Z" fill="#025B67"/>
    </svg>
    