<svg width="26" height="26" viewBox="0 0 26 26" fill="none" xmlns="http://www.w3.org/2000/svg">
    <path fill-rule="evenodd" clip-rule="evenodd" d="M13 19.5C16.5898 19.5 19.5 16.5898 19.5 13C19.5 9.41015 16.5898 6.5 13 6.5C9.41015 6.5 6.5 9.41015 6.5 13C6.5 16.5898 9.41015 19.5 13 19.5ZM13 17.3333C15.3932 17.3333 17.3333 15.3932 17.3333 13C17.3333 10.6068 15.3932 8.66667 13 8.66667C10.6068 8.66667 8.66667 10.6068 8.66667 13C8.66667 15.3932 10.6068 17.3333 13 17.3333Z" fill="#F1F4F5"/>
    <path d="M19.4998 5.41669C18.9015 5.41669 18.4165 5.90172 18.4165 6.50002C18.4165 7.09832 18.9015 7.58335 19.4998 7.58335C20.0982 7.58335 20.5832 7.09832 20.5832 6.50002C20.5832 5.90172 20.0982 5.41669 19.4998 5.41669Z" fill="#F1F4F5"/>
    <path fill-rule="evenodd" clip-rule="evenodd" d="M1.79195 4.63238C1.0835 6.0228 1.0835 7.84298 1.0835 11.4833V14.5166C1.0835 18.157 1.0835 19.9772 1.79195 21.3675C2.41513 22.5906 3.4095 23.585 4.63256 24.2081C6.02299 24.9166 7.84316 24.9166 11.4835 24.9166H14.5168C18.1572 24.9166 19.9774 24.9166 21.3677 24.2081C22.5908 23.585 23.5852 22.5906 24.2083 21.3675C24.9168 19.9772 24.9168 18.157 24.9168 14.5166V11.4833C24.9168 7.84298 24.9168 6.0228 24.2083 4.63238C23.5852 3.40932 22.5908 2.41495 21.3677 1.79177C19.9774 1.08331 18.1572 1.08331 14.5168 1.08331H11.4835C7.84316 1.08331 6.02299 1.08331 4.63256 1.79177C3.4095 2.41495 2.41513 3.40932 1.79195 4.63238ZM14.5168 3.24998H11.4835C9.62757 3.24998 8.36593 3.25167 7.39075 3.33134C6.44084 3.40895 5.95507 3.54962 5.61621 3.72228C4.80084 4.13774 4.13792 4.80065 3.72246 5.61602C3.5498 5.95489 3.40913 6.44066 3.33152 7.39057C3.25185 8.36575 3.25016 9.62739 3.25016 11.4833V14.5166C3.25016 16.3726 3.25185 17.6342 3.33152 18.6094C3.40913 19.5593 3.5498 20.0451 3.72246 20.384C4.13792 21.1993 4.80084 21.8622 5.61621 22.2776C5.95507 22.4503 6.44084 22.5911 7.39075 22.6686C8.36593 22.7482 9.62757 22.75 11.4835 22.75H14.5168C16.3728 22.75 17.6343 22.7482 18.6096 22.6686C19.5595 22.5911 20.0453 22.4503 20.3842 22.2776C21.1995 21.8622 21.8624 21.1993 22.2778 20.384C22.4505 20.0451 22.5912 19.5593 22.6688 18.6094C22.7484 17.6342 22.7502 16.3726 22.7502 14.5166V11.4833C22.7502 9.62739 22.7484 8.36575 22.6688 7.39057C22.5912 6.44066 22.4505 5.95489 22.2778 5.61602C21.8624 4.80065 21.1995 4.13774 20.3842 3.72228C20.0453 3.54962 19.5595 3.40895 18.6096 3.33134C17.6343 3.25167 16.3728 3.24998 14.5168 3.24998Z" fill="#F1F4F5"/>
    </svg>
    