<svg width="381" height="78" viewBox="0 0 381 78" fill="none" xmlns="http://www.w3.org/2000/svg">
<path d="M0.194344 32V11.28H5.03834V27.8H15.0063V32H0.194344ZM27.1669 32.28C25.3935 32.28 23.8442 31.9813 22.5189 31.384C21.1935 30.768 20.0829 29.956 19.1869 28.948C18.3095 27.9213 17.6469 26.7733 17.1989 25.504C16.7509 24.2347 16.5269 22.9373 16.5269 21.612C16.5269 20.2867 16.7509 18.9987 17.1989 17.748C17.6469 16.4787 18.3095 15.34 19.1869 14.332C20.0829 13.324 21.1935 12.5213 22.5189 11.924C23.8442 11.308 25.3935 11 27.1669 11C27.4282 11 27.6802 11.0093 27.9229 11.028H31.5909C32.6549 11.028 33.1869 10.4867 33.1869 9.404V7.808H37.2189V9.936C37.2189 11.0373 36.9855 11.8867 36.5189 12.484C36.0522 13.0627 35.3149 13.408 34.3069 13.52C35.4642 14.5467 36.3322 15.7787 36.9109 17.216C37.4895 18.6533 37.7789 20.1187 37.7789 21.612C37.7789 22.9373 37.5549 24.2347 37.1069 25.504C36.6589 26.7733 35.9869 27.9213 35.0909 28.948C34.2135 29.956 33.1122 30.768 31.7869 31.384C30.4615 31.9813 28.9215 32.28 27.1669 32.28ZM27.1669 27.94C28.3802 27.94 29.3975 27.632 30.2189 27.016C31.0589 26.4 31.6842 25.616 32.0949 24.664C32.5242 23.6933 32.7389 22.676 32.7389 21.612C32.7389 20.5667 32.5242 19.568 32.0949 18.616C31.6842 17.6453 31.0589 16.852 30.2189 16.236C29.3975 15.62 28.3802 15.312 27.1669 15.312C25.9349 15.312 24.8989 15.62 24.0589 16.236C23.2375 16.852 22.6215 17.6453 22.2109 18.616C21.8002 19.568 21.5949 20.5667 21.5949 21.612C21.5949 22.676 21.8002 23.6933 22.2109 24.664C22.6215 25.616 23.2375 26.4 24.0589 27.016C24.8989 27.632 25.9349 27.94 27.1669 27.94ZM26.9149 39.084C26.2242 39.084 25.6549 38.8507 25.2069 38.384C24.7775 37.936 24.5629 37.3853 24.5629 36.732C24.5629 36.0787 24.7775 35.5187 25.2069 35.052C25.6549 34.604 26.2242 34.38 26.9149 34.38C27.6055 34.38 28.1749 34.604 28.6229 35.052C29.0709 35.5187 29.2949 36.0787 29.2949 36.732C29.2949 37.3853 29.0709 37.936 28.6229 38.384C28.1749 38.8507 27.6055 39.084 26.9149 39.084ZM40.5537 32V11.28H45.3977V32H40.5537ZM59.6567 9.292L56.2127 9.264L58.4247 4.252H62.7927L59.6567 9.292ZM55.4847 32V11.28H60.3287V32H55.4847ZM73.564 32.28C71.8466 32.28 70.3346 31.9813 69.028 31.384C67.7213 30.768 66.6293 29.956 65.752 28.948C64.8933 27.9213 64.24 26.7733 63.792 25.504C63.3626 24.2347 63.148 22.9373 63.148 21.612C63.148 20.3053 63.3626 19.0173 63.792 17.748C64.24 16.4787 64.8933 15.34 65.752 14.332C66.6293 13.324 67.7213 12.5213 69.028 11.924C70.3346 11.308 71.8466 11 73.564 11C75.0386 11 76.2893 11.1867 77.316 11.56C78.3613 11.9147 79.2293 12.3907 79.92 12.988C80.6293 13.5667 81.1893 14.1827 81.6 14.836C82.0293 15.4707 82.3466 16.0773 82.552 16.656C82.7573 17.2347 82.888 17.7107 82.944 18.084C83.0186 18.4573 83.056 18.644 83.056 18.644H78.268C78.268 18.644 78.212 18.476 78.1 18.14C78.0066 17.804 77.8013 17.4213 77.484 16.992C77.1853 16.544 76.728 16.152 76.112 15.816C75.496 15.48 74.6653 15.312 73.62 15.312C72.4066 15.312 71.3893 15.62 70.568 16.236C69.7653 16.852 69.1586 17.6453 68.748 18.616C68.356 19.568 68.16 20.5667 68.16 21.612C68.16 22.6573 68.356 23.6653 68.748 24.636C69.1586 25.6067 69.7653 26.4 70.568 27.016C71.3893 27.632 72.4066 27.94 73.62 27.94C74.6653 27.94 75.496 27.772 76.112 27.436C76.728 27.1 77.1853 26.7173 77.484 26.288C77.8013 25.8587 78.0066 25.476 78.1 25.14C78.212 24.804 78.268 24.636 78.268 24.636H83.056C83.056 24.636 83.0186 24.8227 82.944 25.196C82.888 25.5507 82.7573 26.0267 82.552 26.624C82.3466 27.2027 82.0293 27.8187 81.6 28.472C81.1893 29.1067 80.6293 29.7227 79.92 30.32C79.2293 30.8987 78.3613 31.3747 77.316 31.748C76.2893 32.1027 75.0386 32.28 73.564 32.28ZM85.835 32V11.28H90.679V19.316H98.127V11.28H102.971V32H98.127V23.46H90.679V32H85.835ZM113.015 32V11.28H117.859V19.82L124.747 11.28H130.655L122.339 21.192L130.935 32H124.803L117.859 23.068V32H113.015ZM133.386 32V11.28H138.23V19.316H145.678V11.28H150.522V32H145.678V23.46H138.23V32H133.386ZM154.112 32V11.28H158.956V32H154.112ZM168.987 32V11.28H173.439L181.727 23.628V11.28H186.515V32H182.035L173.803 20.128V32H168.987ZM193.681 9.544L197.377 5.148H201.129L204.825 9.544H201.185L199.253 7.192L197.321 9.544H193.681ZM189.005 32L195.977 11.28H202.473L209.445 32H204.377L203.173 28.22H195.277L194.073 32H189.005ZM196.593 24.076H201.857L199.225 15.928L196.593 24.076ZM211.944 32V11.28H216.396L224.684 23.628V11.28H229.472V32H224.992L216.76 20.128V32H211.944ZM242.826 32.28C241.071 32.28 239.531 31.9813 238.206 31.384C236.88 30.7867 235.77 29.984 234.874 28.976C233.996 27.9493 233.334 26.8107 232.886 25.56C232.456 24.2907 232.242 22.9933 232.242 21.668C232.242 20.3427 232.466 19.0453 232.914 17.776C233.362 16.5067 234.024 15.368 234.902 14.36C235.798 13.3333 236.918 12.5213 238.262 11.924C239.606 11.308 241.174 11 242.966 11C244.384 11 245.598 11.1773 246.606 11.532C247.614 11.8867 248.454 12.344 249.126 12.904C249.816 13.464 250.367 14.0613 250.778 14.696C251.207 15.312 251.524 15.9 251.73 16.46C251.954 17.0013 252.094 17.4493 252.15 17.804C252.224 18.1587 252.262 18.336 252.262 18.336H247.446C247.446 18.336 247.39 18.1867 247.278 17.888C247.184 17.5707 246.979 17.2067 246.662 16.796C246.363 16.3853 245.915 16.0307 245.318 15.732C244.72 15.4147 243.936 15.256 242.966 15.256C241.696 15.256 240.632 15.564 239.774 16.18C238.934 16.796 238.299 17.5893 237.87 18.56C237.44 19.5307 237.226 20.5387 237.226 21.584C237.226 22.6667 237.44 23.7027 237.87 24.692C238.318 25.6627 238.971 26.4653 239.83 27.1C240.688 27.7347 241.752 28.052 243.022 28.052C244.366 28.052 245.43 27.7253 246.214 27.072C247.016 26.4187 247.511 25.5507 247.698 24.468H242.574V20.688H252.486V22.34C252.486 24.524 252.066 26.3533 251.226 27.828C250.404 29.3027 249.266 30.4133 247.81 31.16C246.354 31.9067 244.692 32.28 242.826 32.28ZM271.314 32.28C269.597 32.28 268.085 31.9813 266.778 31.384C265.471 30.768 264.379 29.956 263.502 28.948C262.643 27.9213 261.99 26.7733 261.542 25.504C261.113 24.2347 260.898 22.9373 260.898 21.612C260.898 20.3053 261.113 19.0173 261.542 17.748C261.99 16.4787 262.643 15.34 263.502 14.332C264.379 13.324 265.471 12.5213 266.778 11.924C268.085 11.308 269.597 11 271.314 11C272.789 11 274.039 11.1867 275.066 11.56C276.111 11.9147 276.979 12.3907 277.67 12.988C278.379 13.5667 278.939 14.1827 279.35 14.836C279.779 15.4707 280.097 16.0773 280.302 16.656C280.507 17.2347 280.638 17.7107 280.694 18.084C280.769 18.4573 280.806 18.644 280.806 18.644H276.018C276.018 18.644 275.962 18.476 275.85 18.14C275.757 17.804 275.551 17.4213 275.234 16.992C274.935 16.544 274.478 16.152 273.862 15.816C273.246 15.48 272.415 15.312 271.37 15.312C270.157 15.312 269.139 15.62 268.318 16.236C267.515 16.852 266.909 17.6453 266.498 18.616C266.106 19.568 265.91 20.5667 265.91 21.612C265.91 22.6573 266.106 23.6653 266.498 24.636C266.909 25.6067 267.515 26.4 268.318 27.016C269.139 27.632 270.157 27.94 271.37 27.94C272.415 27.94 273.246 27.772 273.862 27.436C274.478 27.1 274.935 26.7173 275.234 26.288C275.551 25.8587 275.757 25.476 275.85 25.14C275.962 24.804 276.018 24.636 276.018 24.636H280.806C280.806 24.636 280.769 24.8227 280.694 25.196C280.638 25.5507 280.507 26.0267 280.302 26.624C280.097 27.2027 279.779 27.8187 279.35 28.472C278.939 29.1067 278.379 29.7227 277.67 30.32C276.979 30.8987 276.111 31.3747 275.066 31.748C274.039 32.1027 272.789 32.28 271.314 32.28ZM298.76 5.904L295.316 5.876L297.528 0.863997H301.896L298.76 5.904ZM286.02 9.544L289.716 5.148H293.468L297.164 9.544H293.524L291.592 7.192L289.66 9.544H286.02ZM281.372 32L288.344 11.28H294.84L301.812 32H296.744L295.54 28.22H287.644L286.44 32H281.372ZM288.96 24.076H294.224L291.592 15.928L288.96 24.076ZM304.312 32V11.28H313.244C314.98 11.28 316.426 11.616 317.584 12.288C318.741 12.96 319.6 13.828 320.16 14.892C320.738 15.956 321.028 17.0667 321.028 18.224C321.028 19.4 320.738 20.52 320.16 21.584C319.6 22.648 318.741 23.5253 317.584 24.216C316.426 24.888 314.98 25.224 313.244 25.224H309.156V32H304.312ZM313.216 15.508H309.156V21.024H313.216C314.205 21.024 314.942 20.7347 315.428 20.156C315.913 19.5773 316.156 18.9427 316.156 18.252C316.156 17.5613 315.913 16.936 315.428 16.376C314.942 15.7973 314.205 15.508 313.216 15.508ZM339.869 32.28C338.114 32.28 336.574 31.9813 335.249 31.384C333.923 30.7867 332.813 29.984 331.917 28.976C331.039 27.9493 330.377 26.8107 329.929 25.56C329.499 24.2907 329.285 22.9933 329.285 21.668C329.285 20.3427 329.509 19.0453 329.957 17.776C330.405 16.5067 331.067 15.368 331.945 14.36C332.841 13.3333 333.961 12.5213 335.305 11.924C336.649 11.308 338.217 11 340.009 11C341.427 11 342.641 11.1773 343.649 11.532C344.657 11.8867 345.497 12.344 346.169 12.904C346.859 13.464 347.41 14.0613 347.821 14.696C348.25 15.312 348.567 15.9 348.773 16.46C348.997 17.0013 349.137 17.4493 349.193 17.804C349.267 18.1587 349.305 18.336 349.305 18.336H344.489C344.489 18.336 344.433 18.1867 344.321 17.888C344.227 17.5707 344.022 17.2067 343.705 16.796C343.406 16.3853 342.958 16.0307 342.361 15.732C341.763 15.4147 340.979 15.256 340.009 15.256C338.739 15.256 337.675 15.564 336.817 16.18C335.977 16.796 335.342 17.5893 334.913 18.56C334.483 19.5307 334.269 20.5387 334.269 21.584C334.269 22.6667 334.483 23.7027 334.913 24.692C335.361 25.6627 336.014 26.4653 336.873 27.1C337.731 27.7347 338.795 28.052 340.065 28.052C341.409 28.052 342.473 27.7253 343.257 27.072C344.059 26.4187 344.554 25.5507 344.741 24.468H339.617V20.688H349.529V22.34C349.529 24.524 349.109 26.3533 348.269 27.828C347.447 29.3027 346.309 30.4133 344.853 31.16C343.397 31.9067 341.735 32.28 339.869 32.28ZM363.864 9.012L360.42 8.984L362.632 3.972H367L363.864 9.012ZM362.128 32.28C360.354 32.28 358.805 31.9813 357.48 31.384C356.154 30.768 355.044 29.956 354.148 28.948C353.27 27.9213 352.608 26.7733 352.16 25.504C351.712 24.2347 351.488 22.9373 351.488 21.612C351.488 20.2867 351.712 18.9987 352.16 17.748C352.608 16.4787 353.27 15.34 354.148 14.332C355.044 13.324 356.154 12.5213 357.48 11.924C358.805 11.308 360.354 11 362.128 11C363.882 11 365.422 11.308 366.748 11.924C368.073 12.5213 369.174 13.324 370.052 14.332C370.948 15.34 371.62 16.4787 372.068 17.748C372.516 18.9987 372.74 20.2867 372.74 21.612C372.74 22.9373 372.516 24.2347 372.068 25.504C371.62 26.7733 370.948 27.9213 370.052 28.948C369.174 29.956 368.073 30.768 366.748 31.384C365.422 31.9813 363.882 32.28 362.128 32.28ZM362.128 27.94C363.341 27.94 364.358 27.632 365.18 27.016C366.02 26.4 366.645 25.616 367.056 24.664C367.485 23.6933 367.7 22.676 367.7 21.612C367.7 20.5667 367.485 19.568 367.056 18.616C366.645 17.6453 366.02 16.852 365.18 16.236C364.358 15.62 363.341 15.312 362.128 15.312C360.896 15.312 359.86 15.62 359.02 16.236C358.198 16.852 357.582 17.6453 357.172 18.616C356.761 19.568 356.556 20.5667 356.556 21.612C356.556 22.676 356.761 23.6933 357.172 24.664C357.582 25.616 358.198 26.4 359.02 27.016C359.86 27.632 360.896 27.94 362.128 27.94ZM375.515 32V11.28H380.359V32H375.515Z" fill="#025B67"/>
<path d="M47.1162 77V56.28H51.9602V64.82L58.8482 56.28H64.7562L56.4402 66.192L65.0362 77H58.9042L51.9602 68.068V77H47.1162ZM67.4873 77V56.28H72.3313V64.316H79.7793V56.28H84.6233V77H79.7793V68.46H72.3313V77H67.4873ZM101.794 51.436V50.512C101.794 50.2507 101.85 50.0173 101.962 49.812C102.074 49.588 102.261 49.4013 102.522 49.252L102.97 49.056C103.343 48.8507 103.633 48.6547 103.838 48.468C104.043 48.2813 104.146 48.0387 104.146 47.74C104.146 47.516 104.062 47.32 103.894 47.152C103.726 46.984 103.493 46.9 103.194 46.9C102.858 46.9 102.615 46.984 102.466 47.152C102.317 47.32 102.223 47.4973 102.186 47.684C102.167 47.852 102.158 47.9453 102.158 47.964H99.5259C99.5072 47.46 99.6099 46.9467 99.8339 46.424C100.077 45.9013 100.469 45.4627 101.01 45.108C101.551 44.7533 102.261 44.576 103.138 44.576C104.314 44.576 105.238 44.884 105.91 45.5C106.601 46.116 106.946 46.8347 106.946 47.656C106.946 48.3653 106.713 48.944 106.246 49.392C105.779 49.84 105.219 50.2413 104.566 50.596L104.454 50.652V51.436H101.794ZM91.6579 54.544L95.3539 50.148H99.1059L102.802 54.544H99.1619L97.2299 52.192L95.2979 54.544H91.6579ZM87.1219 77L94.0939 56.28H100.59L107.562 77H102.494L101.29 73.22H93.3939L92.1899 77H87.1219ZM94.7099 69.076H99.9739L97.3419 60.928L94.7099 69.076ZM110.062 77V56.28H114.514L122.802 68.628V56.28H127.59V77H123.11L114.878 65.128V77H110.062ZM147.228 77.28C145.511 77.28 143.999 76.9813 142.692 76.384C141.385 75.768 140.293 74.956 139.416 73.948C138.557 72.9213 137.904 71.7733 137.456 70.504C137.027 69.2347 136.812 67.9373 136.812 66.612C136.812 65.3053 137.027 64.0173 137.456 62.748C137.904 61.4787 138.557 60.34 139.416 59.332C140.293 58.324 141.385 57.5213 142.692 56.924C143.999 56.308 145.511 56 147.228 56C148.703 56 149.953 56.1867 150.98 56.56C152.025 56.9147 152.893 57.3907 153.584 57.988C154.293 58.5667 154.853 59.1827 155.264 59.836C155.693 60.4707 156.011 61.0773 156.216 61.656C156.421 62.2347 156.552 62.7107 156.608 63.084C156.683 63.4573 156.72 63.644 156.72 63.644H151.932C151.932 63.644 151.876 63.476 151.764 63.14C151.671 62.804 151.465 62.4213 151.148 61.992C150.849 61.544 150.392 61.152 149.776 60.816C149.16 60.48 148.329 60.312 147.284 60.312C146.071 60.312 145.053 60.62 144.232 61.236C143.429 61.852 142.823 62.6453 142.412 63.616C142.02 64.568 141.824 65.5667 141.824 66.612C141.824 67.6573 142.02 68.6653 142.412 69.636C142.823 70.6067 143.429 71.4 144.232 72.016C145.053 72.632 146.071 72.94 147.284 72.94C148.329 72.94 149.16 72.772 149.776 72.436C150.392 72.1 150.849 71.7173 151.148 71.288C151.465 70.8587 151.671 70.476 151.764 70.14C151.876 69.804 151.932 69.636 151.932 69.636H156.72C156.72 69.636 156.683 69.8227 156.608 70.196C156.552 70.5507 156.421 71.0267 156.216 71.624C156.011 72.2027 155.693 72.8187 155.264 73.472C154.853 74.1067 154.293 74.7227 153.584 75.32C152.893 75.8987 152.025 76.3747 150.98 76.748C149.953 77.1027 148.703 77.28 147.228 77.28ZM174.674 50.904L171.23 50.876L173.442 45.864H177.81L174.674 50.904ZM161.934 54.544L165.63 50.148H169.382L173.078 54.544H169.438L167.506 52.192L165.574 54.544H161.934ZM157.286 77L164.258 56.28H170.754L177.726 77H172.658L171.454 73.22H163.558L162.354 77H157.286ZM164.874 69.076H170.138L167.506 60.928L164.874 69.076ZM180.226 77V56.28H189.158C190.894 56.28 192.34 56.616 193.498 57.288C194.655 57.96 195.514 58.828 196.074 59.892C196.652 60.956 196.942 62.0667 196.942 63.224C196.942 64.4 196.652 65.52 196.074 66.584C195.514 67.648 194.655 68.5253 193.498 69.216C192.34 69.888 190.894 70.224 189.158 70.224H185.07V77H180.226ZM189.13 60.508H185.07V66.024H189.13C190.119 66.024 190.856 65.7347 191.342 65.156C191.827 64.5773 192.07 63.9427 192.07 63.252C192.07 62.5613 191.827 61.936 191.342 61.376C190.856 60.7973 190.119 60.508 189.13 60.508ZM206.011 77V56.28H214.943C216.679 56.28 218.125 56.616 219.283 57.288C220.44 57.96 221.299 58.828 221.859 59.892C222.437 60.956 222.727 62.0667 222.727 63.224C222.727 64.4 222.437 65.52 221.859 66.584C221.299 67.648 220.44 68.5253 219.283 69.216C218.125 69.888 216.679 70.224 214.943 70.224H210.855V77H206.011ZM214.915 60.508H210.855V66.024H214.915C215.904 66.024 216.641 65.7347 217.127 65.156C217.612 64.5773 217.855 63.9427 217.855 63.252C217.855 62.5613 217.612 61.936 217.127 61.376C216.641 60.7973 215.904 60.508 214.915 60.508ZM225.343 77V56.28H234.107C235.637 56.28 236.972 56.5413 238.111 57.064C239.249 57.5867 240.127 58.3333 240.743 59.304C241.359 60.2747 241.667 61.432 241.667 62.776C241.667 64.1573 241.331 65.3427 240.659 66.332C240.005 67.3213 239.081 68.068 237.887 68.572L242.171 77H236.823L232.987 69.244H230.187V77H225.343ZM234.051 60.452H230.187V65.352H234.051C234.891 65.352 235.563 65.128 236.067 64.68C236.571 64.232 236.823 63.644 236.823 62.916C236.823 62.1693 236.571 61.572 236.067 61.124C235.563 60.676 234.891 60.452 234.051 60.452ZM245.659 77V56.28H260.303V60.48H250.503V64.484H259.043V68.488H250.503V72.8H260.443V77H245.659ZM263.843 77V56.28H270.395L274.679 66.36L279.131 56.28H285.459V77H280.671V63.756L276.891 72.296H272.411L268.631 63.7V77H263.843ZM289.054 77V56.28H293.898V77H289.054ZM306.072 77.28C304.97 77.28 303.906 77.1307 302.88 76.832C301.853 76.5147 300.929 76.02 300.108 75.348C299.305 74.676 298.661 73.7987 298.176 72.716C297.709 71.6333 297.476 70.3267 297.476 68.796V56.28H302.32V68.796C302.32 69.8973 302.618 70.8307 303.216 71.596C303.832 72.3427 304.784 72.716 306.072 72.716C307.36 72.716 308.302 72.3427 308.9 71.596C309.516 70.8307 309.824 69.8973 309.824 68.796V56.28H314.668V68.796C314.668 70.3267 314.425 71.6333 313.94 72.716C313.473 73.7987 312.829 74.676 312.008 75.348C311.205 76.02 310.29 76.5147 309.264 76.832C308.237 77.1307 307.173 77.28 306.072 77.28ZM318.257 77V56.28H324.809L329.093 66.36L333.545 56.28H339.873V77H335.085V63.756L331.305 72.296H326.825L323.045 63.7V77H318.257Z" fill="#FF8A00"/>
</svg>
