<svg width="17" height="20" viewBox="0 0 17 20" fill="none" xmlns="http://www.w3.org/2000/svg">
    <path id="Vector" fill-rule="evenodd" clip-rule="evenodd" d="M8.18182 1.61662e-08C7.92121 -3.47338e-05 7.66365 0.0559533 7.42657 0.16417C7.1895 0.272386 6.97846 0.430302 6.80775 0.627216C6.63705 0.824129 6.51067 1.05544 6.43718 1.30547C6.36369 1.5555 6.34481 1.8184 6.38182 2.07636C5.06421 2.46539 3.90779 3.2702 3.08527 4.37061C2.26274 5.47102 1.81826 6.80798 1.81818 8.18182V15.4545H0.909091C0.667985 15.4545 0.436754 15.5503 0.266266 15.7208C0.0957789 15.8913 0 16.1225 0 16.3636C0 16.6047 0.0957789 16.836 0.266266 17.0065C0.436754 17.177 0.667985 17.2727 0.909091 17.2727H15.4545C15.6957 17.2727 15.9269 17.177 16.0974 17.0065C16.2679 16.836 16.3636 16.6047 16.3636 16.3636C16.3636 16.1225 16.2679 15.8913 16.0974 15.7208C15.9269 15.5503 15.6957 15.4545 15.4545 15.4545H14.5455V8.18182C14.5454 6.80798 14.1009 5.47102 13.2784 4.37061C12.4558 3.2702 11.2994 2.46539 9.98182 2.07636C10.0188 1.8184 9.99994 1.5555 9.92645 1.30547C9.85297 1.05544 9.72659 0.824129 9.55588 0.627216C9.38518 0.430302 9.17414 0.272386 8.93706 0.16417C8.69999 0.0559533 8.44242 -3.47338e-05 8.18182 1.61662e-08ZM10 19.0909C10 19.332 9.90422 19.5632 9.73373 19.7337C9.56325 19.9042 9.33202 20 9.09091 20H7.27273C7.03162 20 6.80039 19.9042 6.6299 19.7337C6.45942 19.5632 6.36364 19.332 6.36364 19.0909C6.36364 18.8498 6.45942 18.6186 6.6299 18.4481C6.80039 18.2776 7.03162 18.1818 7.27273 18.1818H9.09091C9.33202 18.1818 9.56325 18.2776 9.73373 18.4481C9.90422 18.6186 10 18.8498 10 19.0909Z" fill="white"/>
    </svg>