<svg width="29" height="27" viewBox="0 0 29 27" fill="none" xmlns="http://www.w3.org/2000/svg">
<path d="M18.7402 9.64912L15.8286 6.16275C16.05 5.91783 16.1928 5.61768 16.2401 5.29793C16.2874 4.97818 16.2371 4.65224 16.0954 4.35881C15.9536 4.06537 15.7262 3.81676 15.4402 3.64247C15.1543 3.46819 14.8217 3.37555 14.482 3.37555C14.1423 3.37555 13.8097 3.46819 13.5237 3.64247C13.2378 3.81676 13.0104 4.06537 12.8686 4.35881C12.7269 4.65224 12.6766 4.97818 12.7239 5.29793C12.7712 5.61768 12.914 5.91783 13.1354 6.16275L10.2238 9.64912C10.0994 9.79878 9.92525 9.90394 9.72987 9.94746C9.53448 9.99097 9.32935 9.97028 9.14793 9.88875L4.69 7.89075C4.75535 7.54333 4.70445 7.18518 4.54448 6.86669C4.3845 6.54821 4.1235 6.28541 3.79819 6.11527C3.47288 5.94514 3.09964 5.87624 2.73098 5.91826C2.36232 5.96027 2.0168 6.1111 1.74303 6.34952C1.46926 6.58793 1.28102 6.90193 1.2048 7.24734C1.12858 7.59275 1.16821 7.95218 1.31812 8.27507C1.46803 8.59795 1.72067 8.86803 2.0405 9.04731C2.36033 9.22659 2.73124 9.30605 3.10105 9.2745L5.40902 20.2432C5.50984 20.7207 5.78132 21.1502 6.1774 21.459C6.57349 21.7678 7.06977 21.9369 7.58206 21.9375H21.3766C21.8897 21.9376 22.3871 21.7687 22.7839 21.4594C23.1808 21.1502 23.4526 20.7198 23.5532 20.2416L25.8612 9.2745C26.231 9.30605 26.6019 9.22659 26.9217 9.04731C27.2415 8.86803 27.4942 8.59795 27.6441 8.27507C27.794 7.95218 27.8336 7.59275 27.7574 7.24734C27.6812 6.90193 27.4929 6.58793 27.2192 6.34952C26.9454 6.1111 26.5999 5.96027 26.2312 5.91826C25.8626 5.87624 25.4893 5.94514 25.164 6.11527C24.8387 6.28541 24.5777 6.54821 24.4177 6.86669C24.2578 7.18518 24.2069 7.54333 24.2722 7.89075L19.8125 9.88875C19.6313 9.96985 19.4265 9.99031 19.2315 9.94681C19.0365 9.9033 18.8627 9.79839 18.7384 9.64912M14.4811 16.875C14.0102 16.875 13.5587 16.6972 13.2257 16.3807C12.8928 16.0643 12.7057 15.635 12.7057 15.1875C12.7057 14.7399 12.8928 14.3107 13.2257 13.9943C13.5587 13.6778 14.0102 13.5 14.4811 13.5C14.952 13.5 15.4035 13.6778 15.7365 13.9943C16.0694 14.3107 16.2565 14.7399 16.2565 15.1875C16.2565 15.635 16.0694 16.0643 15.7365 16.3807C15.4035 16.6972 14.952 16.875 14.4811 16.875Z" fill="white"/>
</svg>
