<svg
                
                width="32"
                height="32"
                viewBox="0 0 32 32"
                fill="none"
                xmlns="http://www.w3.org/2000/svg"
            >
                <path
                    d="M22.4826 26.8184L22.3358 26.6716L22.3362 26.4641L22.3396 24.2562L21.2477 23.1644C18.9527 25.0359 16.0216 26.1586 12.8293 26.1586C5.46773 26.1586 -0.5 20.1909 -0.5 12.8293C-0.5 5.46771 5.46773 -0.5 12.8293 -0.5C20.191 -0.5 26.1587 5.46771 26.1587 12.8293C26.1587 16.0216 25.0359 18.9526 23.1644 21.2476L24.3025 22.3858L26.3979 22.2921L26.618 22.2823L26.7738 22.4381L32.3536 28.0177L32.7071 28.3713L32.3536 28.7248L28.7249 32.3535L28.3713 32.7071L28.0178 32.3536L22.4826 26.8184ZM2.21058 12.8293C2.21058 18.6939 6.96477 23.4481 12.8293 23.4481C18.6939 23.4481 23.4481 18.6939 23.4481 12.8293C23.4481 6.96475 18.6939 2.21058 12.8293 2.21058C6.96477 2.21058 2.21058 6.96475 2.21058 12.8293ZM25.0482 25.5506L28.3713 28.8737L28.8738 28.3713L25.546 25.0435L25.0489 25.0657L25.0482 25.5506Z"
                    fill="#4B4D4E"
                    stroke="#4B4D4E"
                />
            </svg>