<svg width="17" height="17" viewBox="0 0 17 17" fill="none" xmlns="http://www.w3.org/2000/svg">
<g id="uiw:setting" clip-path="url(#clip0_301_1472)">
<path id="Vector" d="M9.0621 1.49297e-06C9.3026 1.49297e-06 9.51773 0.149695 9.59871 0.373827L10.1762 1.97465C10.3832 2.02619 10.5607 2.07772 10.7112 2.13171C10.8756 2.19061 11.0875 2.27977 11.3492 2.40165L12.694 1.68999C12.8038 1.63184 12.9295 1.61084 13.0522 1.63016C13.1749 1.64949 13.288 1.70808 13.3746 1.79715L14.5574 3.02006C14.7145 3.18284 14.7587 3.42088 14.6703 3.62865L14.0396 5.10678C14.1443 5.29901 14.2278 5.46342 14.2916 5.60085C14.3603 5.75054 14.4454 5.95668 14.5468 6.22253L16.0167 6.85239C16.2376 6.94646 16.3742 7.16732 16.3595 7.40372L16.2515 9.10107C16.2441 9.21134 16.2045 9.31702 16.1376 9.40499C16.0708 9.49297 15.9795 9.55937 15.8752 9.59596L14.483 10.0908C14.4429 10.2831 14.4012 10.4475 14.357 10.5866C14.2858 10.8013 14.2044 11.0126 14.1133 11.2197L14.8126 12.7657C14.862 12.8743 14.8753 12.9959 14.8506 13.1126C14.8258 13.2294 14.7644 13.3351 14.6752 13.4144L13.3452 14.6021C13.2576 14.68 13.1483 14.7293 13.0319 14.7433C12.9155 14.7573 12.7976 14.7355 12.694 14.6806L11.3231 13.9543C11.1086 14.0678 10.8873 14.1681 10.6605 14.2545L10.0617 14.4786L9.53 15.951C9.4906 16.0588 9.41953 16.1522 9.3261 16.2189C9.23267 16.2857 9.12126 16.3226 9.00648 16.3248L7.45228 16.36C7.33446 16.3631 7.21857 16.3296 7.12057 16.2641C7.02257 16.1986 6.94727 16.1044 6.90504 15.9944L6.27845 14.3363C6.06466 14.2632 5.85299 14.1841 5.64368 14.099C5.47249 14.025 5.30388 13.945 5.13816 13.8594L3.58396 14.5236C3.48155 14.5673 3.36865 14.5803 3.259 14.5609C3.14935 14.5416 3.04768 14.4909 2.96637 14.4148L1.81626 13.3359C1.73063 13.2559 1.67232 13.151 1.64957 13.0361C1.62681 12.9211 1.64077 12.8019 1.68947 12.6954L2.35778 11.2393C2.2689 11.0669 2.18649 10.8911 2.11074 10.7125C2.02232 10.4939 1.94048 10.2727 1.86534 10.0491L0.401121 9.60332C0.282102 9.56735 0.178293 9.49308 0.105814 9.39206C0.0333356 9.29103 -0.00375568 9.1689 0.00030059 9.04463L0.0575606 7.47325C0.0616363 7.37072 0.0936644 7.27126 0.150181 7.18562C0.206698 7.09998 0.285552 7.03142 0.378217 6.98736L1.91442 6.24952C1.98559 5.98858 2.04775 5.78572 2.10256 5.63766C2.17973 5.4399 2.26543 5.24558 2.35941 5.05524L1.69356 3.64828C1.64303 3.54144 1.62768 3.42132 1.64973 3.3052C1.67178 3.18908 1.73008 3.08295 1.81626 3.00206L2.96473 1.91739C3.04524 1.84146 3.14598 1.79041 3.25482 1.77038C3.36366 1.75036 3.47597 1.76221 3.57823 1.80451L5.1308 2.44582C5.30258 2.3313 5.458 2.23887 5.59869 2.16443C5.76638 2.07527 5.99052 1.98202 6.27273 1.8814L6.8126 0.375463C6.85252 0.265253 6.92548 0.170048 7.02152 0.10285C7.11756 0.0356506 7.232 -0.000266873 7.34921 1.49297e-06H9.0621ZM8.19993 5.74154C6.83633 5.74154 5.73121 6.83357 5.73121 8.18164C5.73121 9.5297 6.83633 10.6226 8.19993 10.6226C9.56272 10.6226 10.6678 9.5297 10.6678 8.18164C10.6678 6.83357 9.56354 5.74154 8.19993 5.74154Z" fill="white"/>
</g>
<defs>
<clipPath id="clip0_301_1472">
<rect width="16.36" height="16.36" fill="white"/>
</clipPath>
</defs>
</svg>
