<svg width="35" height="35" viewBox="0 0 35 35" fill="none" xmlns="http://www.w3.org/2000/svg">
<path id="Vector" d="M23.4826 27.8184L23.3358 27.6716L23.3362 27.4641L23.3396 25.2562L22.2477 24.1644C19.9527 26.0359 17.0216 27.1586 13.8293 27.1586C6.46773 27.1586 0.5 21.1909 0.5 13.8293C0.5 6.46771 6.46773 0.5 13.8293 0.5C21.191 0.5 27.1587 6.46771 27.1587 13.8293C27.1587 17.0216 26.0359 19.9526 24.1644 22.2476L25.3025 23.3858L27.3979 23.2921L27.618 23.2823L27.7738 23.4381L33.3536 29.0177L33.7071 29.3713L33.3536 29.7248L29.7249 33.3535L29.3713 33.7071L29.0178 33.3536L23.4826 27.8184ZM3.21058 13.8293C3.21058 19.6939 7.96477 24.4481 13.8293 24.4481C19.6939 24.4481 24.4481 19.6939 24.4481 13.8293C24.4481 7.96475 19.6939 3.21058 13.8293 3.21058C7.96477 3.21058 3.21058 7.96475 3.21058 13.8293ZM26.0482 26.5506L29.3713 29.8737L29.8738 29.3713L26.546 26.0435L26.0489 26.0657L26.0482 26.5506Z" fill="#4B4D4E" stroke="#4B4D4E"/>
</svg>
