<svg width="61" height="103" viewBox="0 0 61 103" fill="none" xmlns="http://www.w3.org/2000/svg">
<path fill-rule="evenodd" clip-rule="evenodd" d="M19.5474 0L20.3568 1.90803C22.0845 5.98032 25.9793 8.81112 30.5 8.81112C35.0207 8.81112 38.9155 5.98032 40.6432 1.90803L41.4525 0L43.4384 0.196595C53.2926 1.17214 61 9.85138 61 20.418V55.2393C61 60.047 57.276 63.9447 52.6818 63.9447H49.9091V97.9558L40.1449 101.362C33.8844 103.546 27.1156 103.546 20.8551 101.362L11.0909 97.9558V63.9447H8.31818C3.72405 63.9447 0 60.047 0 55.2393V20.418C0 9.85138 7.70735 1.17214 17.5616 0.196595L19.5474 0ZM55.4545 55.2393C55.4545 56.842 54.2132 58.1411 52.6818 58.1411H49.9091V26.2219H44.3636V46.5343H16.6364V26.2219H11.0909V58.1411H8.31818C6.7868 58.1411 5.54545 56.842 5.54545 55.2393V20.418C5.54545 13.5249 10.1404 7.75221 16.2981 6.27535C19.2186 11.2732 24.484 14.6148 30.5 14.6148C36.516 14.6148 41.7811 11.2732 44.7019 6.27535C50.8596 7.75221 55.4545 13.5249 55.4545 20.418V55.2393ZM38.3915 95.8563L44.3636 93.7729V52.3378H16.6364V93.7729L22.6085 95.8563C27.7312 97.6432 33.2688 97.6432 38.3915 95.8563Z" fill="#F23929"/>
</svg>
