<svg width="113" height="113" viewBox="0 0 113 113" fill="none" xmlns="http://www.w3.org/2000/svg">
<path fill-rule="evenodd" clip-rule="evenodd" d="M62.1333 43.4727C60.4512 42.7658 58.6034 42.375 56.6643 42.375C48.8633 42.375 42.5393 48.699 42.5393 56.5C42.5393 64.301 48.8633 70.625 56.6643 70.625C64.4653 70.625 70.7893 64.301 70.7893 56.5C70.7893 55.8766 70.749 55.2624 70.6707 54.6605C72.089 53.3687 72.9792 51.507 72.9792 49.4375C72.9792 45.5369 69.8173 42.375 65.9167 42.375C64.5249 42.375 63.227 42.7776 62.1333 43.4727ZM56.6643 65.9167C61.8651 65.9167 66.081 61.7006 66.081 56.5C67.6818 56.4635 69.151 55.8926 70.3182 54.9611C69.111 55.9242 67.581 56.5 65.9167 56.5C62.016 56.5 58.8542 53.3381 58.8542 49.4375C58.8542 48.7343 58.9568 48.0554 59.1482 47.4143C58.357 47.1985 57.524 47.0833 56.6643 47.0833C51.4637 47.0833 47.2476 51.2994 47.2476 56.5C47.2476 61.7006 51.4637 65.9167 56.6643 65.9167ZM68.2708 49.4375C68.2708 50.7377 67.2169 51.7917 65.9167 51.7917C64.6164 51.7917 63.5625 50.7377 63.5625 49.4375C63.5625 48.1373 64.6164 47.0833 65.9167 47.0833C67.2169 47.0833 68.2708 48.1373 68.2708 49.4375Z" fill="#F23929"/>
<path fill-rule="evenodd" clip-rule="evenodd" d="M12.2322 49.1178C20.255 40.0357 35.5037 28.4682 56.0803 28.2531C56.2199 28.2509 56.3598 28.25 56.4998 28.25H56.5683H56.6639C77.5357 28.25 92.997 39.9502 101.096 49.1178C104.85 53.3678 104.85 59.6322 101.096 63.8822C92.997 73.0498 77.5357 84.75 56.6639 84.75H56.5683H56.4998C56.3598 84.75 56.2199 84.7491 56.0803 84.7469C35.5037 84.5318 20.255 72.9643 12.2322 63.8822C8.47794 59.6322 8.47792 53.3678 12.2322 49.1178ZM15.7609 52.235C20.1843 47.2276 26.8974 41.4912 35.5148 37.5869C30.999 42.5944 28.2498 49.2261 28.2498 56.5C28.2498 63.7739 30.999 70.4056 35.5148 75.4131C26.8974 71.5088 20.1843 65.7724 15.7609 60.765C13.5795 58.2958 13.5795 54.7042 15.7609 52.235ZM56.5667 32.9583C56.4238 32.9588 56.2811 32.9595 56.1387 32.9612C43.3036 33.154 32.9582 43.6189 32.9582 56.5C32.9582 69.3811 43.3036 79.846 56.1387 80.0388C56.2811 80.0405 56.4238 80.0412 56.5667 80.0417C69.5377 80.0056 80.0415 69.4795 80.0415 56.5C80.0415 43.5205 69.5377 32.9944 56.5667 32.9583ZM84.7498 56.5C84.7498 63.8942 81.9091 70.6248 77.2594 75.6601C86.143 71.7536 93.0492 65.879 97.5666 60.765C99.7482 58.2958 99.7482 54.7042 97.5666 52.235C93.0492 47.121 86.143 41.2464 77.2594 37.3399C81.9091 42.3752 84.7498 49.1058 84.7498 56.5Z" fill="#F23929"/>
</svg>
