<svg width="79" height="90" viewBox="0 0 79 90" fill="none" xmlns="http://www.w3.org/2000/svg">
<path d="M25.9353 18.8045L27.3438 20.8667C27.9146 20.474 28.2971 19.861 28.3995 19.1742C28.5019 18.4875 28.3148 17.7888 27.8832 17.246L25.9353 18.8045ZM19.933 11.2517L18.59 9.14595C17.9955 9.52762 17.5903 10.1445 17.475 10.843C17.3594 11.5417 17.5447 12.2568 17.9848 12.8105L19.933 11.2517ZM28.3362 5.85695L30.2841 4.29835C29.4886 3.29732 28.0681 3.0611 26.9932 3.75113L28.3362 5.85695ZM34.3382 13.4097L32.3903 14.9683C33.1089 15.8727 34.352 16.1642 35.3957 15.6735L34.3382 13.4097ZM41.2213 10.1728L42.2788 12.4365C43.1538 12.025 43.713 11.1425 43.713 10.1728H41.2213ZM41.2213 2.5001L41.2211 0.000100136C39.8452 0.000125136 38.7297 1.1194 38.7297 2.5001H41.2213ZM51.9453 2.5H54.4369C54.4369 1.83695 54.1743 1.20108 53.7071 0.732225C53.2397 0.263375 52.606 0 51.9453 0V2.5ZM51.9453 10.1728H49.4536C49.4536 11.0865 49.9505 11.9272 50.7493 12.366L51.9453 10.1728ZM12.4581 35.0735L10.3096 36.3392C10.6564 36.9323 11.2315 37.3555 11.8992 37.5098C12.567 37.664 13.2684 37.5355 13.839 37.1545L12.4581 35.0735ZM2.49163 28.4065L0.043543 27.9412C-0.0817355 28.605 0.0659176 29.2913 0.452916 29.8438C0.839939 30.3965 1.43334 30.7685 2.09806 30.8752L2.49163 28.4065ZM4.72293 16.5878L5.42626 14.1895C4.75131 13.9903 4.02375 14.0865 3.42337 14.4548C2.82302 14.823 2.40582 15.4288 2.27486 16.1225L4.72293 16.5878ZM22.4246 30.0808L23.3487 32.4022C24.4059 31.9787 25.0423 30.8902 24.8953 29.7577L22.4246 30.0808ZM37.7622 33.5115L35.5282 32.4043L34.2137 35.0745L37.0626 35.9108L37.7622 33.5115ZM76.4182 14.4893L78.9081 14.5813L79 12.0773L76.5042 11.9907L76.4182 14.4893ZM75.9824 26.3685L75.8964 28.867L78.3808 28.953L78.4723 26.4605L75.9824 26.3685ZM13.3653 32.0232C8.37011 36.4567 6.4984 42.513 6.70994 48.8167C6.91949 55.0707 9.16717 61.686 12.5391 67.6715C15.918 73.6693 20.5123 79.19 25.6019 83.2375C30.6564 87.257 36.4295 90 42.133 90V85C37.9758 85 33.2721 82.957 28.6972 79.319C24.1572 75.7085 19.9693 70.6998 16.8772 65.211C13.7782 59.7098 11.8658 53.881 11.6902 48.6485C11.5165 43.4655 13.0344 38.9925 16.6672 35.7682L13.3653 32.0232ZM42.133 90C47.8221 90 53.7432 87.2712 58.9863 83.2315C64.2693 79.1612 69.107 73.5783 72.6531 67.4333C79.6212 55.3588 82.1646 39.832 70.9007 29.8352L67.5991 33.5802C76.0953 41.1208 74.9409 53.4905 68.3406 64.9277C65.1028 70.5387 60.6891 75.6155 55.9513 79.266C51.1736 82.947 46.3047 85 42.133 85V90ZM70.9007 29.8352C69.4706 28.566 68.3561 27.9063 67.1384 27.2888C65.9639 26.693 64.8763 26.2175 63.1199 25.1785L60.5887 29.4852C62.5304 30.6342 63.908 31.2527 64.8902 31.751C65.8296 32.2272 66.5638 32.6615 67.5991 33.5802L70.9007 29.8352ZM39.3955 31.3737C35.6835 30.1545 30.8692 28.9638 26.2325 28.6973C21.7125 28.4373 16.7507 29.0185 13.3653 32.0232L16.6672 35.7682C18.5237 34.1205 21.7718 33.4487 25.9472 33.689C30.0058 33.9225 34.3729 34.985 37.8447 36.1255L39.3955 31.3737ZM27.8832 17.246L21.8812 9.69315L17.9848 12.8105L23.9871 20.3633L27.8832 17.246ZM21.2759 13.3575L29.6789 7.96278L26.9932 3.75113L18.59 9.14595L21.2759 13.3575ZM26.388 7.41558L32.3903 14.9683L36.2864 11.851L30.2841 4.29835L26.388 7.41558ZM35.3957 15.6735L42.2788 12.4365L40.1639 7.90912L33.2808 11.146L35.3957 15.6735ZM43.713 10.1728V2.5001H38.7297V10.1728H43.713ZM41.2213 5.0001L51.9453 5V0L41.2211 0.000100136L41.2213 5.0001ZM49.4536 2.5V10.1728H54.4369V2.5H49.4536ZM51.9453 10.1728C50.7493 12.366 50.7498 12.3665 50.7493 12.366C50.749 12.366 50.7495 12.3662 50.7493 12.366C50.7488 12.3657 50.7461 12.3642 50.7456 12.364C50.7446 12.3632 50.7436 12.3627 50.7431 12.3625C50.7416 12.3615 50.7408 12.3612 50.7408 12.3612C50.7406 12.361 50.7443 12.363 50.7493 12.366C50.7598 12.372 50.7797 12.3835 50.8098 12.4015C50.8706 12.4375 50.9693 12.4973 51.0994 12.581C51.36 12.749 51.7434 13.0105 52.1972 13.3643C53.1116 14.077 54.2764 15.1363 55.3084 16.5278L59.306 13.5425C57.9371 11.697 56.421 10.325 55.2544 9.4158C54.6681 8.9587 54.1611 8.61147 53.7913 8.37342C53.6064 8.25422 53.4549 8.1619 53.3443 8.09635C53.289 8.06357 53.2439 8.03745 53.2098 8.018C53.1926 8.00825 53.1784 8.00017 53.1669 7.99377C53.1612 7.99055 53.1562 7.98775 53.1517 7.98537C53.1497 7.9842 53.1477 7.9831 53.146 7.98213C53.145 7.98163 53.1442 7.98118 53.1435 7.98073C53.143 7.9805 53.1437 7.98085 53.1435 7.98073C53.143 7.98043 53.141 7.97948 51.9453 10.1728ZM23.5777 26.647C24.1321 24.6648 25.11 23.19 25.9507 22.2105C26.3703 21.722 26.749 21.3645 27.0102 21.1383C27.1405 21.0253 27.2401 20.9463 27.2994 20.9007C27.3291 20.878 27.3485 20.8637 27.3562 20.858C27.3602 20.8552 27.3612 20.8545 27.3592 20.856C27.3582 20.8567 27.3565 20.858 27.3537 20.8597C27.3525 20.8605 27.351 20.8618 27.3495 20.8628C27.3485 20.8633 27.3478 20.864 27.3468 20.8647C27.3463 20.865 27.347 20.8647 27.3468 20.8647C27.346 20.8655 27.3438 20.8668 25.9353 18.8045C24.5265 16.7423 24.5258 16.743 24.525 16.7435C24.5248 16.7437 24.5258 16.7432 24.525 16.7435C24.524 16.7445 24.521 16.7463 24.5198 16.747C24.5173 16.7488 24.5145 16.7508 24.5116 16.7528C24.5058 16.7568 24.4991 16.7615 24.4916 16.7668C24.4767 16.7775 24.4582 16.7905 24.4368 16.806C24.3942 16.837 24.3391 16.8778 24.2729 16.9285C24.1406 17.03 23.9634 17.1717 23.7534 17.3537C23.3335 17.7175 22.7761 18.2473 22.1752 18.9475C20.975 20.3455 19.5747 22.4545 18.7798 25.2962L23.5777 26.647ZM12.4581 35.0735C14.6066 33.8078 14.6061 33.807 14.6056 33.806C14.6056 33.8057 14.6059 33.8065 14.6056 33.806C14.6049 33.8045 14.6029 33.8015 14.6021 33.8C14.6004 33.797 14.5984 33.7938 14.5962 33.79C14.5919 33.7828 14.5867 33.774 14.5807 33.764C14.5688 33.744 14.5533 33.7188 14.5344 33.6882C14.4967 33.6278 14.4454 33.5467 14.3804 33.4485C14.2503 33.252 14.0649 32.9845 13.8233 32.6667C13.3414 32.0327 12.6275 31.1877 11.675 30.3057C9.77563 28.547 6.85246 26.5748 2.88521 25.938L2.09806 30.8752C4.82466 31.3127 6.8846 32.674 8.29511 33.9803C8.99774 34.6305 9.52024 35.2507 9.86109 35.6992C10.031 35.9225 10.1534 36.1003 10.2286 36.2138C10.266 36.2705 10.2916 36.311 10.3051 36.3327C10.3118 36.3435 10.3156 36.3498 10.3163 36.351C10.3168 36.3515 10.3176 36.353 10.3163 36.351C10.3158 36.35 10.3138 36.3467 10.3128 36.3452C10.3123 36.3445 10.3118 36.3435 10.3113 36.3425C10.3111 36.342 10.3116 36.3428 10.3113 36.3425C10.3108 36.3418 10.3096 36.3392 12.4581 35.0735ZM4.93972 28.8717L7.17114 17.053L2.27486 16.1225L0.043543 27.9412L4.93972 28.8717ZM4.72293 16.5878C4.01952 18.986 4.01904 18.986 4.01864 18.9858C4.01922 18.986 4.02036 18.9862 4.02288 18.9873C4.02794 18.9888 4.03688 18.9912 4.04959 18.9952C4.07501 19.003 4.11544 19.0152 4.16996 19.0322C4.27904 19.0662 4.44424 19.1188 4.65784 19.1895C5.08541 19.3308 5.70482 19.5442 6.4548 19.8272C7.96073 20.3955 9.96225 21.233 11.9807 22.3158C14.0144 23.4065 15.9708 24.6963 17.4523 26.1398C18.9445 27.5938 19.7747 29.0245 19.9539 30.4035L24.8953 29.7577C24.5165 26.839 22.8551 24.4342 20.9239 22.5527C18.9817 20.6602 16.5822 19.1143 14.3301 17.9062C12.0624 16.69 9.84788 15.766 8.20915 15.1475C7.38666 14.837 6.70172 14.6008 6.21785 14.4408C5.97566 14.3605 5.78331 14.2995 5.64901 14.2575C5.58174 14.2365 5.52891 14.2205 5.49154 14.209C5.47285 14.2035 5.4579 14.199 5.44694 14.1957C5.44146 14.194 5.43722 14.1927 5.43373 14.1917C5.43199 14.1912 5.43049 14.1907 5.42925 14.1902C5.42875 14.1902 5.42975 14.1902 5.42925 14.1902C5.42875 14.19 5.42626 14.1895 4.72293 16.5878ZM21.5004 27.759C18.2808 29.0492 15.6997 30.3417 13.9137 31.3177C13.0202 31.8062 12.3241 32.216 11.8452 32.5082C11.6057 32.6543 11.4203 32.771 11.2915 32.8532C11.2272 32.8945 11.1769 32.927 11.1413 32.9505C11.1233 32.9622 11.1089 32.9715 11.0984 32.9785C11.0929 32.9823 11.0887 32.985 11.0852 32.9875C11.0832 32.9885 11.0817 32.9895 11.0805 32.9905C11.08 32.9907 11.081 32.9902 11.0805 32.9905C11.0802 32.9907 11.0782 32.992 11.078 32.992C11.0777 32.9923 11.0772 32.9925 12.4581 35.0735C13.839 37.1545 13.8392 37.1542 13.839 37.1545C13.8387 37.1547 13.8392 37.1545 13.839 37.1545C13.8427 37.152 13.8509 37.1465 13.8619 37.1395C13.8841 37.125 13.9202 37.1015 13.97 37.0695C14.0702 37.0058 14.2254 36.9077 14.4335 36.7807C14.8501 36.5267 15.4777 36.1565 16.2972 35.7088C17.9372 34.8125 20.3393 33.6085 23.3487 32.4022L21.5004 27.759ZM52.4463 37.166C54.7234 33.5342 57.1326 31.6055 59.8098 30.362L57.7166 25.8245C54.1264 27.492 50.995 30.091 48.2283 34.5035L52.4463 37.166ZM37.0626 35.9108C40.1539 36.8182 43.7591 38.278 46.0229 39.2448L47.9744 34.6442C45.6724 33.661 41.8462 32.1055 38.4619 31.112L37.0626 35.9108ZM51.9066 15.6932C44.6154 19.0795 39.6671 23.9968 35.5282 32.4043L39.9962 34.6185C43.6885 27.1185 47.853 23.0855 54.0001 20.2308L51.9066 15.6932ZM76.5042 11.9907C67.1539 11.667 58.9343 12.4295 51.9066 15.6932L54.0001 20.2308C59.972 17.4573 67.2602 16.6737 76.3322 16.9878L76.5042 11.9907ZM78.4723 26.4605L78.9081 14.5813L73.9283 14.3972L73.4925 26.2765L78.4723 26.4605ZM59.8098 30.362C63.0427 28.8608 67.3186 28.57 75.8964 28.867L76.0684 23.87C67.6474 23.5785 62.1863 23.7487 57.7166 25.8245L59.8098 30.362ZM48.2283 34.5035C48.1859 34.5712 48.1226 34.6175 48.0613 34.6383C48.0053 34.6573 47.9809 34.647 47.9744 34.6442L46.0229 39.2448C48.4515 40.282 51.14 39.249 52.4463 37.166L48.2283 34.5035ZM41.8971 61.7197L42.9249 64.1032L47.4985 62.1177L46.4704 59.7342L41.8971 61.7197ZM42.7258 63.2808L43.4234 73.5387L48.395 73.1985L47.6976 62.9403L42.7258 63.2808ZM45.499 65.594L56.1033 64.3587L55.5287 59.392L44.9244 60.6273L45.499 65.594ZM47.5707 35.201L41.769 47.7952L46.2923 49.893L52.094 37.299L47.5707 35.201ZM41.6305 48.1733L41.1027 50.0742L45.9031 51.416L46.4308 49.515L41.6305 48.1733ZM43.0041 46.5662L32.1596 51.487L34.2129 56.0428L45.0574 51.122L43.0041 46.5662ZM33.7575 51.3315L22.9521 48.7773L21.8094 53.644L32.6148 56.1982L33.7575 51.3315ZM30.8692 52.8452L27.1843 62.191L31.8182 64.0303L35.5031 54.6845L30.8692 52.8452ZM46.4704 59.7342C45.3382 57.1082 45.1379 54.1723 45.9031 51.416L41.1027 50.0742C40.0313 53.933 40.3117 58.0435 41.8971 61.7197L46.4704 59.7342Z" fill="#F23929"/>
</svg>
