<svg width="55" height="84" viewBox="0 0 55 84" fill="none" xmlns="http://www.w3.org/2000/svg">
<path d="M42.6898 0.187459C43.8014 0.677621 44.3052 1.97621 43.815 3.08791L41.8021 2.2004C43.815 3.08791 43.8152 3.0874 43.815 3.08791L43.8139 3.09046L43.8029 3.11558L43.7701 3.18926C43.7415 3.25343 43.6993 3.34745 43.6441 3.46968C43.5337 3.71416 43.3709 4.0716 43.159 4.52894C42.7349 5.44348 42.1138 6.75826 41.3214 8.36886C39.737 11.5881 37.4626 15.9987 34.7019 20.7622C29.2391 30.1881 21.6681 41.3624 13.5947 47.1816L13.5909 47.1844C5.1063 53.2733 3.46715 59.9485 4.83835 64.7599C6.25003 69.7141 10.9966 73.417 16.8193 73.417H17.8574C18.5308 71.0708 20.2861 68.8027 23.2732 67.4099C26.6584 65.8313 31.4564 65.441 37.8997 66.9365C39.0832 67.2111 39.82 68.3933 39.5452 69.5766C39.2707 70.7602 38.0884 71.4969 36.9049 71.2224C31.0289 69.8584 27.3205 70.3772 25.1327 71.3975C23.9377 71.9545 23.1502 72.6783 22.6561 73.417H23.9226C29.5447 73.417 34.1024 77.9748 34.1024 83.5971H29.7026C29.7026 80.4048 27.1149 77.8168 23.9226 77.8168H16.8193C9.10925 77.8168 2.57838 72.8844 0.606824 65.9657C-1.40521 58.9051 1.46611 50.4711 11.0234 43.6113C18.2648 38.3912 25.4403 27.9678 30.8952 18.5559C33.5936 13.9 35.821 9.58127 37.3737 6.42609C38.1496 4.84942 38.7559 3.56566 39.1671 2.6785C39.3727 2.23498 39.5296 1.89074 39.6343 1.65878C39.6867 1.5428 39.7261 1.45489 39.752 1.39671L39.7808 1.3319L39.789 1.31326C40.2793 0.201561 41.5779 -0.302703 42.6898 0.187459Z" fill="#F23929"/>
<path d="M47.3656 76.6645C50.4682 74.731 53.3226 70.5767 54.4643 65.9778C55.6322 61.2735 55.0935 55.7189 50.8127 51.2725L47.643 54.324C50.6241 57.4203 51.0938 61.2937 50.1943 64.9176C49.2683 68.6469 46.9789 71.7211 45.0386 72.9303L47.3656 76.6645Z" fill="#F23929"/>
</svg>
