<svg width="317" height="109" viewBox="0 0 317 109" fill="none" xmlns="http://www.w3.org/2000/svg">
<rect x="2.5" y="2.5" width="312" height="104" rx="17.5" fill="#4CAF50"/>
<rect x="2.5" y="2.5" width="312" height="104" rx="17.5" stroke="black" stroke-width="5"/>
<rect x="2.5" y="2.5" width="312" height="104" rx="17.5" stroke="#4CAF50" stroke-width="5"/>
<path d="M122.952 71.344H151.752V82H109.8V27.952H150.696V39.376H122.952V49.264H143.592V60.016H122.952V71.344ZM156.786 82L175.314 53.68L158.034 27.952H173.778L184.338 45.904L194.898 27.952H210.45L193.362 53.68L211.986 82H196.434L184.338 61.84L172.338 82H156.786ZM245.281 70.576V82H218.017V70.576H225.025V39.376H218.017V27.952H245.281V39.376H238.369V70.576H245.281ZM252.773 39.376V27.952H295.493V39.376H280.805V82H267.365V39.376H252.773Z" fill="white"/>
<path d="M66.25 18C71.3375 18 75.5 22.1625 75.5 27.25C75.5 31.4125 72.725 35.1125 68.5625 36.0375V36.5C70.4125 36.5 71.8 37.425 73.1875 38.8125L79.2 44.825C79.6625 45.2875 80.5875 45.75 81.5125 45.75H89.375V18H66.25Z" fill="white"/>
<path d="M74.575 85.0625L57 64.25V75.8125C57 79.5125 53.7625 82.75 50.0625 82.75H33.875C31.1 82.75 29.25 80.9 29.25 78.125C29.25 75.35 31.1 73.5 33.875 73.5H45.4375C46.825 73.5 47.75 72.575 47.75 71.1875V61.9375C47.75 58.7 48.2125 55.925 49.6 52.6875L52.8375 45.75H49.1375C46.825 45.75 44.975 46.675 43.5875 48.525L41.275 51.7625C40.35 53.6125 38.0375 54.075 35.725 53.15C33.875 51.7625 32.95 48.9875 34.8 47.1375L37.575 43.4375C40.8125 38.8125 46.3625 36.5 51.9125 36.5H61.1625L61.625 35.1125C58.85 33.725 57 30.4875 57 27.25C57 22.1625 61.1625 18 66.25 18H33.875V40.6625L31.1 44.3625C29.7125 46.2125 28.7875 48.525 29.25 51.3C29.7125 53.6125 31.1 55.925 33.4125 57.3125V68.875C28.325 68.875 24.1625 73.0375 24.1625 78.125C24.1625 83.2125 28.325 87.375 33.4125 87.375V92H87.0625C81.975 92 77.35 89.225 74.575 85.0625Z" fill="white"/>
<path d="M72.725 51.7625L69.4875 48.0625L66.7125 55C65.7875 57.3125 65.325 59.1625 66.7125 61.0125L89.375 89.225V55H79.6625C76.8875 55 74.575 54.075 72.725 51.7625Z" fill="white"/>
</svg>
