<svg width="221" height="221" viewBox="0 0 221 221" fill="none" xmlns="http://www.w3.org/2000/svg">
<g clip-path="url(#clip0_295_1196)">
<path d="M82.875 89.2563L110.5 78.897L138.125 89.2563V110.758C138.124 115.888 136.694 120.917 133.996 125.281C131.298 129.644 127.438 133.17 122.848 135.464L110.5 141.643L98.1424 135.473C93.5519 133.177 89.6919 129.647 86.9952 125.28C84.2985 120.913 82.8717 115.881 82.875 110.749V89.2563Z" fill="#3BB800"/>
<path fill-rule="evenodd" clip-rule="evenodd" d="M116.964 20.2123C112.796 18.6499 108.204 18.6499 104.036 20.2123L39.5774 44.3842C36.0662 45.7003 33.0404 48.0569 30.9046 51.139C28.7687 54.221 27.6245 57.8816 27.625 61.6314V111.016C27.6247 126.407 31.9103 141.494 40.0016 154.586C48.093 167.679 59.6704 178.26 73.4365 185.143L104.321 200.576C106.24 201.535 108.355 202.035 110.5 202.035C112.645 202.035 114.76 201.535 116.679 200.576L147.564 185.134C161.33 178.25 172.907 167.67 180.998 154.577C189.09 141.485 193.375 126.398 193.375 111.006V61.6406C193.375 57.8908 192.231 54.2302 190.095 51.1482C187.96 48.0662 184.934 45.7095 181.423 44.3934L116.964 20.2215V20.2123ZM115.353 61.0512C112.224 59.8772 108.776 59.8772 105.647 61.0512L73.418 73.1326C70.7851 74.1206 68.5165 75.8887 66.9155 78.2006C65.3144 80.5126 64.4572 83.2581 64.4583 86.0703V110.749C64.4569 119.301 66.8373 127.684 71.3328 134.959C75.8282 142.234 82.2611 148.113 89.9102 151.938L105.353 159.654C106.951 160.453 108.713 160.869 110.5 160.869C112.287 160.869 114.049 160.453 115.647 159.654L131.09 151.938C138.738 148.114 145.169 142.236 149.665 134.963C154.16 127.69 156.541 119.308 156.542 110.758V86.0703C156.543 83.2581 155.686 80.5126 154.085 78.2006C152.483 75.8887 150.215 74.1206 147.582 73.1326L115.353 61.0512Z" fill="#3BB800"/>
</g>
<defs>
<clipPath id="clip0_295_1196">
<rect width="221" height="221" fill="white"/>
</clipPath>
</defs>
</svg>
