<svg width="99" height="90" viewBox="0 0 99 90" fill="none" xmlns="http://www.w3.org/2000/svg">
<path d="M24.4814 32.4848C17.8947 45.6611 11.3042 58.8354 4.72039 72.0164C4.12081 73.2155 5.00248 75.3155 6.281 75.7353C20.292 80.2698 34.3088 84.7987 48.3295 89.3409C49.6214 89.7597 50.4064 88.2068 49.7227 86.5716C46.0105 77.7186 42.2907 68.8483 38.5776 59.9982L27.4314 33.4191C26.7449 31.7877 25.0886 31.2551 24.4814 32.4886" fill="#F23929"/>
<path d="M24.6669 31.9895C19.0881 43.15 13.5036 54.2999 7.93625 65.4527C7.43039 66.4692 8.17435 68.246 9.25588 68.6017C21.1173 72.4458 32.9844 76.2804 44.8477 80.1246C45.9426 80.4765 46.611 79.1588 46.0315 77.776C42.8869 70.2798 39.7434 62.783 36.601 55.2858C33.4539 47.7878 30.3069 40.2831 27.1627 32.7861C26.5823 31.4005 25.1785 30.9568 24.664 31.9915" fill="#FBBDB8"/>
<path d="M0.0481185 62.8431C1.98454 67.4542 3.91139 72.0653 5.85354 76.6811C7.08329 79.6187 8.31495 82.5506 9.54373 85.4844C9.62406 85.6728 9.77228 85.7914 9.87555 85.7474C12.4326 84.6754 14.9906 83.6054 17.5447 82.5296C19.0078 81.9157 20.4689 81.3046 21.9339 80.6878C22.0363 80.6496 22.0544 80.4593 21.9798 80.2671C20.0405 75.6512 18.1108 71.044 16.1725 66.4291C14.9447 63.4963 13.713 60.5615 12.4823 57.6277C12.4508 57.5444 12.4 57.4696 12.3341 57.4097L12.3197 57.4068L12.315 57.4021C12.2633 57.36 12.204 57.3409 12.1524 57.3629C9.59155 58.4358 7.03834 59.5087 4.48323 60.5787C3.02112 61.1917 1.55709 61.8066 0.0930624 62.4234C-0.0111694 62.4616 -0.0302944 62.649 0.0481185 62.8431ZM31.8245 62.5926C38.678 78.9446 46.6856 91.176 49.7045 89.91C52.7234 88.64 49.6127 74.3584 42.7516 58.0093C35.8933 41.6573 27.8904 29.4249 24.8687 30.69C21.8507 31.958 24.9633 46.2426 31.8245 62.5945" fill="#F23929"/>
<path d="M33.5362 62.0935C39.4277 76.1361 45.9178 86.7974 48.0331 85.9061C50.1493 85.0206 47.0873 72.9183 41.2025 58.8823C35.313 44.8369 28.8238 34.1765 26.7057 35.063C24.5895 35.9533 27.6505 48.0489 33.5334 62.0963" fill="#FBBDB8"/>
<path d="M43.7127 57.8372C45.0916 61.1172 44.1698 64.6343 41.6529 65.6938C39.1351 66.7476 35.9718 64.9432 34.5919 61.6613C33.2168 58.3813 34.1482 54.8681 36.6699 53.8133C39.1886 52.7576 42.3433 54.5544 43.7127 57.8372Z" fill="#F23929"/>
<path d="M44.3811 36.9635C47.9648 39.4615 51.3685 44.403 53.6563 50.5462C55.9441 56.6895 56.5939 62.6565 55.5221 66.8794L60.624 69.2319C62.3513 63.7465 61.7508 56.3048 58.8786 48.5924C56.0064 40.88 51.6008 34.8555 46.6984 31.839L44.3811 36.9635ZM53.0072 17.9291L50.6279 23.1749C56.5034 27.8927 61.9643 36.0794 65.6838 46.067C69.4004 56.0468 70.6247 65.8113 69.2772 73.228L74.5004 75.6425C76.4886 66.9956 75.2481 55.772 70.9091 44.1211C66.5702 32.4701 60.1671 23.1691 53.0072 17.9291Z" fill="#FBBDB8"/>
<path d="M59.5345 3.52675L57.1503 8.78336C65.4913 15.6116 73.2011 27.2222 78.4488 41.3132C83.6994 55.412 85.4622 69.2374 83.6164 79.8503L88.8583 82.2669C91.279 70.4392 89.4632 54.9361 83.6633 39.3623C77.8742 23.7934 69.0992 10.882 59.5345 3.52675Z" fill="#FBBDB8"/>
</svg>
